  0
SECTION
  2
HEADER
  9
$ACADVER
  1
AC1006
  9
$EXTMIN
 10
0.000000
 20
0.000000
 30
0.000000
  9
$EXTMAX
 10
820.000000
 20
675.000000
 30
0.000000
  0
ENDSEC
  0
SECTION
  2
ENTITIES
  0
POLYLINE
  8
0
 66
1
 70
1
  0
VERTEX
  8
0
 10
399.386128
 20
633.566370
 42
0.112682
  0
VERTEX
  8
0
 10
395.526285
 20
630.722751
 42
0.006686
  0
VERTEX
  8
0
 10
386.141283
 20
619.536545
 42
0.010670
  0
VERTEX
  8
0
 10
376.142382
 20
606.741865
 42
0.011953
  0
VERTEX
  8
0
 10
367.082210
 20
594.000000
 42
0.029188
  0
VERTEX
  8
0
 10
343.974954
 20
555.085404
 42
0.032442
  0
VERTEX
  8
0
 10
326.456440
 20
515.066364
 42
0.031325
  0
VERTEX
  8
0
 10
313.801964
 20
471.894569
 42
0.024070
  0
VERTEX
  8
0
 10
305.276800
 20
423.500000
 42
0.026417
  0
VERTEX
  8
0
 10
303.716562
 20
402.286779
 42
0.006136
  0
VERTEX
  8
0
 10
303.418836
 20
366.526602
 42
0.006587
  0
VERTEX
  8
0
 10
304.044311
 20
329.996040
 42
0.017582
  0
VERTEX
  8
0
 10
305.748339
 20
304.000000
 42
-0.000773
  0
VERTEX
  8
0
 10
306.530475
 20
296.131229
 42
-0.001279
  0
VERTEX
  8
0
 10
307.163319
 20
289.487551
 42
-0.000077
  0
VERTEX
  8
0
 10
307.716300
 20
283.510646
 42
-0.263108
  0
VERTEX
  8
0
 10
307.658990
 20
283.383152
 42
0.010146
  0
VERTEX
  8
0
 10
307.532519
 20
283.286190
 42
0.000008
  0
VERTEX
  8
0
 10
304.480312
 20
280.846165
 42
0.000093
  0
VERTEX
  8
0
 10
301.074866
 20
278.122618
 42
0.000057
  0
VERTEX
  8
0
 10
297.061220
 20
274.910684
 42
0.021761
  0
VERTEX
  8
0
 10
281.286199
 20
261.116026
 42
0.026608
  0
VERTEX
  8
0
 10
267.851574
 20
246.854550
 42
0.029406
  0
VERTEX
  8
0
 10
257.694289
 20
233.313007
 42
0.067575
  0
VERTEX
  8
0
 10
252.165532
 20
221.862154
 42
0.089550
  0
VERTEX
  8
0
 10
248.068348
 20
191.976184
 42
0.044977
  0
VERTEX
  8
0
 10
253.109602
 20
154.086222
 42
0.035853
  0
VERTEX
  8
0
 10
266.900503
 20
108.511823
 42
0.019615
  0
VERTEX
  8
0
 10
289.897495
 20
54.829939
 42
0.032885
  0
VERTEX
  8
0
 10
294.031030
 20
47.435181
 42
0.075916
  0
VERTEX
  8
0
 10
298.251369
 20
42.690728
 42
0.107794
  0
VERTEX
  8
0
 10
302.660660
 20
40.409224
 42
0.127850
  0
VERTEX
  8
0
 10
307.337518
 20
40.369864
 42
0.134534
  0
VERTEX
  8
0
 10
311.613923
 20
42.780851
 42
0.058624
  0
VERTEX
  8
0
 10
315.710201
 20
47.921065
 42
0.022667
  0
VERTEX
  8
0
 10
321.360353
 20
58.012401
 42
0.002319
  0
VERTEX
  8
0
 10
333.525259
 20
82.538073
 42
0.000000
  0
VERTEX
  8
0
 10
351.735190
 20
119.682949
 42
0.000000
  0
VERTEX
  8
0
 10
412.008500
 20
120.400569
 42
-0.001271
  0
VERTEX
  8
0
 10
435.171659
 20
120.617478
 42
-0.002080
  0
VERTEX
  8
0
 10
454.797128
 20
120.669717
 42
-0.000236
  0
VERTEX
  8
0
 10
472.287528
 20
120.635260
 42
-0.207969
  0
VERTEX
  8
0
 10
473.032798
 20
120.309095
 42
-0.065102
  0
VERTEX
  8
0
 10
473.529884
 20
119.610076
 42
-0.000299
  0
VERTEX
  8
0
 10
477.745425
 20
111.659547
 42
-0.001411
  0
VERTEX
  8
0
 10
482.509379
 20
102.599968
 42
-0.000891
  0
VERTEX
  8
0
 10
488.021203
 20
92.000000
 42
0.001404
  0
VERTEX
  8
0
 10
501.025056
 20
67.054451
 42
0.015165
  0
VERTEX
  8
0
 10
506.612851
 20
57.150273
 42
0.038861
  0
VERTEX
  8
0
 10
510.312412
 20
51.986525
 42
0.119477
  0
VERTEX
  8
0
 10
513.753487
 20
49.458533
 42
0.062507
  0
VERTEX
  8
0
 10
516.877144
 20
48.590918
 42
0.069694
  0
VERTEX
  8
0
 10
520.001768
 20
48.569320
 42
0.067452
  0
VERTEX
  8
0
 10
523.095187
 20
49.415305
 42
0.053419
  0
VERTEX
  8
0
 10
526.126475
 20
51.104474
 42
0.118113
  0
VERTEX
  8
0
 10
528.740665
 20
54.081863
 42
0.010350
  0
VERTEX
  8
0
 10
533.274045
 20
63.124852
 42
0.011064
  0
VERTEX
  8
0
 10
538.890932
 20
75.639652
 42
0.004654
  0
VERTEX
  8
0
 10
545.911886
 20
92.698821
 42
0.024438
  0
VERTEX
  8
0
 10
562.547923
 20
140.911634
 42
0.043342
  0
VERTEX
  8
0
 10
570.760740
 20
182.110722
 42
0.054744
  0
VERTEX
  8
0
 10
570.786183
 20
215.743300
 42
0.110104
  0
VERTEX
  8
0
 10
562.282317
 20
240.737625
 42
0.036664
  0
VERTEX
  8
0
 10
554.549514
 20
251.556314
 42
0.022738
  0
VERTEX
  8
0
 10
544.023765
 20
263.099514
 42
0.021063
  0
VERTEX
  8
0
 10
531.419150
 20
274.698718
 42
0.018614
  0
VERTEX
  8
0
 10
517.366606
 20
285.707572
 42
-0.004831
  0
VERTEX
  8
0
 10
511.689650
 20
289.907716
 42
-0.046429
  0
VERTEX
  8
0
 10
509.471064
 20
291.931175
 42
-0.117455
  0
VERTEX
  8
0
 10
508.568069
 20
293.565660
 42
-0.105574
  0
VERTEX
  8
0
 10
508.450848
 20
295.500000
 42
0.025634
  0
VERTEX
  8
0
 10
509.549771
 20
306.610711
 42
0.004454
  0
VERTEX
  8
0
 10
510.360079
 20
327.690296
 42
0.005107
  0
VERTEX
  8
0
 10
510.810232
 20
351.013229
 42
0.006650
  0
VERTEX
  8
0
 10
510.720181
 20
372.370315
 42
0.009776
  0
VERTEX
  8
0
 10
509.636033
 20
401.604437
 42
0.015698
  0
VERTEX
  8
0
 10
507.443147
 20
426.455476
 42
0.016925
  0
VERTEX
  8
0
 10
503.851284
 20
449.709043
 42
0.014341
  0
VERTEX
  8
0
 10
498.526863
 20
474.000000
 42
0.029086
  0
VERTEX
  8
0
 10
485.586143
 20
515.449246
 42
0.030955
  0
VERTEX
  8
0
 10
468.141737
 20
554.234239
 42
0.030912
  0
VERTEX
  8
0
 10
446.016964
 20
590.617237
 42
0.028837
  0
VERTEX
  8
0
 10
419.095394
 20
624.891504
 42
0.025440
  0
VERTEX
  8
0
 10
413.214333
 20
630.903999
 42
0.082928
  0
VERTEX
  8
0
 10
408.571458
 20
633.946543
 42
0.119711
  0
VERTEX
  8
0
 10
404.200584
 20
634.725380
 42
0.087366
  0
SEQEND
  0
POLYLINE
  8
0
 66
1
 70
1
  0
VERTEX
  8
0
 10
411.910258
 20
594.609826
 42
-0.019077
  0
VERTEX
  8
0
 10
422.473075
 20
580.626807
 42
-0.012538
  0
VERTEX
  8
0
 10
433.592985
 20
563.791443
 42
-0.012441
  0
VERTEX
  8
0
 10
444.003096
 20
546.176918
 42
-0.017039
  0
VERTEX
  8
0
 10
452.422428
 20
529.798173
 42
-0.042375
  0
VERTEX
  8
0
 10
471.361583
 20
478.871661
 42
-0.037350
  0
VERTEX
  8
0
 10
482.438148
 20
423.281583
 42
-0.032576
  0
VERTEX
  8
0
 10
486.051225
 20
359.832844
 42
-0.019989
  0
VERTEX
  8
0
 10
482.440024
 20
285.000000
 42
-0.005992
  0
VERTEX
  8
0
 10
480.556304
 20
266.258901
 42
-0.000362
  0
VERTEX
  8
0
 10
474.188049
 20
210.084161
 42
-0.000018
  0
VERTEX
  8
0
 10
467.009583
 20
147.189913
 42
-0.153877
  0
VERTEX
  8
0
 10
466.615118
 20
146.304312
 42
-0.210589
  0
VERTEX
  8
0
 10
466.437092
 20
146.222388
 42
-0.000016
  0
VERTEX
  8
0
 10
450.011358
 20
145.957257
 42
-0.000536
  0
VERTEX
  8
0
 10
431.860960
 20
145.684330
 42
-0.000323
  0
VERTEX
  8
0
 10
410.334843
 20
145.397646
 42
0.000000
  0
VERTEX
  8
0
 10
354.227730
 20
144.686668
 42
0.000000
  0
VERTEX
  8
0
 10
353.630042
 20
147.593334
 42
-0.011474
  0
VERTEX
  8
0
 10
352.959074
 20
151.283691
 42
-0.000112
  0
VERTEX
  8
0
 10
348.735182
 20
178.021338
 42
-0.000401
  0
VERTEX
  8
0
 10
344.209208
 20
206.863211
 42
-0.000370
  0
VERTEX
  8
0
 10
339.605342
 20
236.500000
 42
-0.005499
  0
VERTEX
  8
0
 10
334.574495
 20
271.596564
 42
-0.009518
  0
VERTEX
  8
0
 10
331.270841
 20
300.880464
 42
-0.010435
  0
VERTEX
  8
0
 10
329.281610
 20
328.294838
 42
-0.008673
  0
VERTEX
  8
0
 10
328.281361
 20
357.514319
 42
-0.005307
  0
VERTEX
  8
0
 10
328.131808
 20
381.409862
 42
-0.011295
  0
VERTEX
  8
0
 10
328.629728
 20
399.885496
 42
-0.013045
  0
VERTEX
  8
0
 10
329.891375
 20
416.537846
 42
-0.010257
  0
VERTEX
  8
0
 10
332.097715
 20
434.500000
 42
-0.029526
  0
VERTEX
  8
0
 10
340.814735
 20
477.115001
 42
-0.031409
  0
VERTEX
  8
0
 10
354.363248
 20
517.511088
 42
-0.031634
  0
VERTEX
  8
0
 10
372.759302
 20
555.628190
 42
-0.030888
  0
VERTEX
  8
0
 10
395.948729
 20
591.439297
 42
-0.005939
  0
VERTEX
  8
0
 10
399.243435
 20
595.788754
 42
-0.009800
  0
VERTEX
  8
0
 10
402.141516
 20
599.374323
 42
-0.003815
  0
VERTEX
  8
0
 10
404.657683
 20
602.319610
 42
-0.367794
  0
VERTEX
  8
0
 10
405.166383
 20
602.397170
 42
-0.073894
  0
VERTEX
  8
0
 10
405.657278
 20
601.982776
 42
-0.002118
  0
VERTEX
  8
0
 10
407.464577
 20
599.913609
 42
-0.004248
  0
VERTEX
  8
0
 10
409.565069
 20
597.446059
 42
-0.002906
  0
SEQEND
  0
POLYLINE
  8
0
 66
1
 70
1
  0
VERTEX
  8
0
 10
519.453856
 20
251.968500
 42
-0.014570
  0
VERTEX
  8
0
 10
526.917664
 20
244.797544
 42
-0.017393
  0
VERTEX
  8
0
 10
533.506621
 20
237.602910
 42
-0.018959
  0
VERTEX
  8
0
 10
538.769613
 20
230.943267
 42
-0.044086
  0
VERTEX
  8
0
 10
542.052902
 20
225.500000
 42
-0.095039
  0
VERTEX
  8
0
 10
546.454613
 20
209.288945
 42
-0.043531
  0
VERTEX
  8
0
 10
546.204185
 20
187.289315
 42
-0.035329
  0
VERTEX
  8
0
 10
541.605774
 20
160.342186
 42
-0.020468
  0
VERTEX
  8
0
 10
532.503502
 20
128.756554
 42
-0.006754
  0
VERTEX
  8
0
 10
528.945250
 20
118.535720
 42
-0.004253
  0
VERTEX
  8
0
 10
524.526783
 20
106.690387
 42
-0.002960
  0
VERTEX
  8
0
 10
520.229498
 20
95.658564
 42
-0.033220
  0
VERTEX
  8
0
 10
518.210141
 20
91.411017
 42
-0.569774
  0
VERTEX
  8
0
 10
517.444957
 20
91.392040
 42
-0.007752
  0
VERTEX
  8
0
 10
514.482320
 20
96.286694
 42
-0.009914
  0
VERTEX
  8
0
 10
510.398304
 20
103.605753
 42
-0.002764
  0
VERTEX
  8
0
 10
504.295782
 20
115.225061
 42
0.000000
  0
VERTEX
  8
0
 10
491.198980
 20
140.500000
 42
0.000000
  0
VERTEX
  8
0
 10
499.276079
 20
201.192352
 42
0.000000
  0
VERTEX
  8
0
 10
507.353177
 20
261.884704
 42
0.000000
  0
VERTEX
  8
0
 10
510.056676
 20
259.959643
 42
-0.017613
  0
VERTEX
  8
0
 10
511.513907
 20
258.842627
 42
-0.003873
  0
VERTEX
  8
0
 10
513.932291
 20
256.818157
 42
-0.004025
  0
VERTEX
  8
0
 10
516.692893
 20
254.432047
 42
-0.003860
  0
SEQEND
  0
POLYLINE
  8
0
 66
1
 70
1
  0
VERTEX
  8
0
 10
320.954179
 20
191.500000
 42
0.000000
  0
VERTEX
  8
0
 10
330.217555
 20
132.500000
 42
0.000000
  0
VERTEX
  8
0
 10
317.709000
 20
107.000000
 42
0.000000
  0
VERTEX
  8
0
 10
305.200444
 20
81.500000
 42
0.000000
  0
VERTEX
  8
0
 10
301.996937
 20
88.500000
 42
-0.021261
  0
VERTEX
  8
0
 10
289.491153
 20
119.213457
 42
-0.022855
  0
VERTEX
  8
0
 10
279.972577
 20
150.153089
 42
-0.024463
  0
VERTEX
  8
0
 10
274.182491
 20
178.163370
 42
-0.057975
  0
VERTEX
  8
0
 10
273.351273
 20
199.408487
 42
-0.040285
  0
VERTEX
  8
0
 10
275.157614
 20
210.801366
 42
-0.070138
  0
VERTEX
  8
0
 10
278.681012
 20
219.679101
 42
-0.053392
  0
VERTEX
  8
0
 10
285.217023
 20
228.746918
 42
-0.014971
  0
VERTEX
  8
0
 10
297.280272
 20
241.409425
 42
-0.003014
  0
VERTEX
  8
0
 10
304.503845
 20
248.465404
 42
-0.023086
  0
VERTEX
  8
0
 10
308.063763
 20
251.596964
 42
-0.064274
  0
VERTEX
  8
0
 10
310.066827
 20
252.816618
 42
-0.437275
  0
VERTEX
  8
0
 10
311.014354
 20
252.409425
 42
-0.044520
  0
VERTEX
  8
0
 10
311.408823
 20
250.874122
 42
-0.000187
  0
VERTEX
  8
0
 10
314.213213
 20
233.729644
 42
-0.000925
  0
VERTEX
  8
0
 10
317.354409
 20
214.254460
 42
-0.000583
  0
SEQEND
  0
POLYLINE
  8
0
 66
1
 70
1
  0
VERTEX
  8
0
 10
396.980962
 20
540.643199
 42
0.063912
  0
VERTEX
  8
0
 10
388.317463
 20
537.579814
 42
0.061373
  0
VERTEX
  8
0
 10
380.577151
 20
532.395929
 42
0.061328
  0
VERTEX
  8
0
 10
374.321805
 20
525.484153
 42
0.063638
  0
VERTEX
  8
0
 10
370.021717
 20
517.343671
 42
0.057412
  0
VERTEX
  8
0
 10
368.329202
 20
510.550491
 42
0.043646
  0
VERTEX
  8
0
 10
368.004934
 20
502.878726
 42
0.043790
  0
VERTEX
  8
0
 10
369.015303
 20
495.299013
 42
0.059177
  0
VERTEX
  8
0
 10
371.307687
 20
488.782421
 42
0.126133
  0
VERTEX
  8
0
 10
383.698084
 20
474.291399
 42
0.127597
  0
VERTEX
  8
0
 10
401.478730
 20
467.626707
 42
0.129671
  0
VERTEX
  8
0
 10
420.034116
 20
470.490054
 42
0.132406
  0
VERTEX
  8
0
 10
434.592462
 20
482.125959
 42
0.128582
  0
VERTEX
  8
0
 10
441.560195
 20
499.700101
 42
0.130653
  0
VERTEX
  8
0
 10
438.971763
 20
518.319753
 42
0.129403
  0
VERTEX
  8
0
 10
427.438132
 20
533.324471
 42
0.124949
  0
VERTEX
  8
0
 10
409.861901
 20
540.952587
 42
0.002247
  0
VERTEX
  8
0
 10
407.387740
 20
541.342649
 42
0.003359
  0
VERTEX
  8
0
 10
405.221933
 20
541.659253
 42
0.001430
  0
VERTEX
  8
0
 10
403.368609
 20
541.912070
 42
0.071134
  0
VERTEX
  8
0
 10
403.000000
 20
541.908638
 42
0.013621
  0
VERTEX
  8
0
 10
402.639181
 20
541.843508
 42
0.000350
  0
VERTEX
  8
0
 10
401.025658
 20
541.505460
 42
0.000743
  0
VERTEX
  8
0
 10
399.131969
 20
541.104391
 42
0.000507
  0
SEQEND
  0
POLYLINE
  8
0
 66
1
 70
1
  0
VERTEX
  8
0
 10
417.272237
 20
522.311340
 42
-0.081478
  0
VERTEX
  8
0
 10
422.057638
 20
517.683980
 42
-0.073002
  0
VERTEX
  8
0
 10
425.333186
 20
511.599401
 42
-0.072808
  0
VERTEX
  8
0
 10
426.727933
 20
504.814356
 42
-0.080275
  0
VERTEX
  8
0
 10
426.040126
 20
498.149018
 42
-0.073536
  0
VERTEX
  8
0
 10
423.993554
 20
493.438209
 42
-0.057304
  0
VERTEX
  8
0
 10
420.517830
 20
489.061253
 42
-0.056799
  0
VERTEX
  8
0
 10
416.101069
 20
485.549767
 42
-0.068939
  0
VERTEX
  8
0
 10
411.276871
 20
483.392111
 42
-0.144908
  0
VERTEX
  8
0
 10
398.586933
 20
483.454320
 42
-0.148517
  0
VERTEX
  8
0
 10
388.118058
 20
490.427377
 42
-0.147384
  0
VERTEX
  8
0
 10
383.245323
 20
502.093268
 42
-0.142275
  0
VERTEX
  8
0
 10
385.533109
 20
514.690600
 42
-0.111480
  0
VERTEX
  8
0
 10
391.242146
 20
521.688039
 42
-0.107603
  0
VERTEX
  8
0
 10
399.474421
 20
525.664946
 42
-0.105993
  0
VERTEX
  8
0
 10
408.719378
 20
525.891006
 42
-0.105201
  0
SEQEND
  0
POLYLINE
  8
0
 66
1
 70
1
  0
VERTEX
  8
0
 10
398.195217
 20
455.933228
 42
0.084931
  0
VERTEX
  8
0
 10
387.060578
 20
451.692798
 42
0.083144
  0
VERTEX
  8
0
 10
377.875393
 20
443.968221
 42
0.082680
  0
VERTEX
  8
0
 10
371.669335
 20
433.630628
 42
0.082667
  0
VERTEX
  8
0
 10
369.147184
 20
421.839301
 42
0.085164
  0
VERTEX
  8
0
 10
370.847281
 20
408.216200
 42
0.094504
  0
VERTEX
  8
0
 10
376.994450
 20
396.480821
 42
0.094166
  0
VERTEX
  8
0
 10
387.050864
 20
387.801098
 42
0.083901
  0
VERTEX
  8
0
 10
400.000000
 20
382.973338
 42
0.076125
  0
VERTEX
  8
0
 10
410.211939
 20
382.590261
 42
0.071273
  0
VERTEX
  8
0
 10
420.319522
 20
385.244143
 42
0.070798
  0
VERTEX
  8
0
 10
429.333715
 20
390.652838
 42
0.073390
  0
VERTEX
  8
0
 10
436.355165
 20
398.304362
 42
0.124711
  0
VERTEX
  8
0
 10
442.598234
 20
415.523519
 42
0.125162
  0
VERTEX
  8
0
 10
439.876437
 20
433.612650
 42
0.124588
  0
VERTEX
  8
0
 10
428.824228
 20
448.264149
 42
0.122915
  0
VERTEX
  8
0
 10
412.078564
 20
455.985101
 42
0.012775
  0
VERTEX
  8
0
 10
408.028911
 20
456.646414
 42
0.035029
  0
VERTEX
  8
0
 10
405.139385
 20
456.838253
 42
0.034979
  0
VERTEX
  8
0
 10
402.249029
 20
456.624948
 42
0.012707
  0
SEQEND
  0
POLYLINE
  8
0
 66
1
 70
1
  0
VERTEX
  8
0
 10
413.995565
 20
439.791428
 42
-0.056507
  0
VERTEX
  8
0
 10
417.450988
 20
438.039936
 42
-0.046179
  0
VERTEX
  8
0
 10
420.689916
 20
435.451013
 42
-0.045021
  0
VERTEX
  8
0
 10
423.478632
 20
432.233977
 42
-0.047147
  0
VERTEX
  8
0
 10
425.597842
 20
428.617030
 42
-0.066364
  0
VERTEX
  8
0
 10
427.713451
 20
421.855493
 42
-0.088664
  0
VERTEX
  8
0
 10
427.673925
 20
415.437428
 42
-0.088584
  0
VERTEX
  8
0
 10
425.413111
 20
409.426147
 42
-0.066123
  0
VERTEX
  8
0
 10
421.014985
 20
403.857493
 42
-0.176592
  0
VERTEX
  8
0
 10
407.260301
 20
397.703927
 42
-0.180438
  0
VERTEX
  8
0
 10
392.919146
 20
401.920200
 42
-0.178024
  0
VERTEX
  8
0
 10
384.715584
 20
414.566289
 42
-0.173049
  0
VERTEX
  8
0
 10
386.533109
 20
429.690600
 42
-0.092215
  0
VERTEX
  8
0
 10
391.314531
 20
436.029927
 42
-0.097362
  0
VERTEX
  8
0
 10
397.972695
 20
440.080633
 42
-0.094858
  0
VERTEX
  8
0
 10
405.817319
 20
441.373157
 42
-0.082787
  0
SEQEND
  0
POLYLINE
  8
0
 66
1
 70
1
  0
VERTEX
  8
0
 10
399.000000
 20
369.638731
 42
0.075384
  0
VERTEX
  8
0
 10
387.662002
 20
365.184622
 42
0.085078
  0
VERTEX
  8
0
 10
378.680489
 20
357.702783
 42
0.085491
  0
VERTEX
  8
0
 10
372.734034
 20
347.690260
 42
0.077034
  0
VERTEX
  8
0
 10
370.199957
 20
335.893164
 42
0.086789
  0
VERTEX
  8
0
 10
371.775365
 20
322.292509
 42
0.095809
  0
VERTEX
  8
0
 10
377.881176
 20
310.549955
 42
0.094793
  0
VERTEX
  8
0
 10
387.989235
 20
301.839926
 42
0.083041
  0
VERTEX
  8
0
 10
401.073163
 20
296.967004
 42
0.097299
  0
VERTEX
  8
0
 10
414.120493
 20
297.008334
 42
0.090440
  0
VERTEX
  8
0
 10
426.557306
 20
301.940382
 42
0.089580
  0
VERTEX
  8
0
 10
436.545866
 20
310.999065
 42
0.093099
  0
VERTEX
  8
0
 10
442.570687
 20
322.864624
 42
0.133932
  0
VERTEX
  8
0
 10
442.906592
 20
341.636689
 42
0.126053
  0
VERTEX
  8
0
 10
433.724542
 20
358.477469
 42
0.126684
  0
VERTEX
  8
0
 10
417.620588
 20
368.772719
 42
0.135987
  0
SEQEND
  0
POLYLINE
  8
0
 66
1
 70
1
  0
VERTEX
  8
0
 10
414.995565
 20
353.791428
 42
-0.111957
  0
VERTEX
  8
0
 10
422.093346
 20
349.148997
 42
-0.094244
  0
VERTEX
  8
0
 10
427.031370
 20
341.622629
 42
-0.094218
  0
VERTEX
  8
0
 10
428.862789
 20
332.807102
 42
-0.111815
  0
VERTEX
  8
0
 10
427.129067
 20
324.500000
 42
-0.121737
  0
VERTEX
  8
0
 10
420.424902
 20
316.050645
 42
-0.125232
  0
VERTEX
  8
0
 10
410.624765
 20
311.807362
 42
-0.124485
  0
VERTEX
  8
0
 10
399.941803
 20
312.752601
 42
-0.119453
  0
VERTEX
  8
0
 10
390.803048
 20
318.658417
 42
-0.079427
  0
VERTEX
  8
0
 10
387.084019
 20
324.085531
 42
-0.078248
  0
VERTEX
  8
0
 10
385.218016
 20
330.429460
 42
-0.076642
  0
VERTEX
  8
0
 10
385.373357
 20
337.155605
 42
-0.071679
  0
VERTEX
  8
0
 10
387.533109
 20
343.690600
 42
-0.092215
  0
VERTEX
  8
0
 10
392.314531
 20
350.029927
 42
-0.097362
  0
VERTEX
  8
0
 10
398.972695
 20
354.080633
 42
-0.094858
  0
VERTEX
  8
0
 10
406.817319
 20
355.373157
 42
-0.082787
  0
SEQEND
  0
ENDSEC
  0
EOF
